name analog
datacolumns 19
datarows 64
range 0.332 0.3635
endheader
time	ground_force_vx	ground_force_vy	ground_force_vz	ground_force_px	ground_force_py	ground_force_pz	l_ground_force_vx	l_ground_force_vy	l_ground_force_vz	l_ground_force_px	l_ground_force_py	l_ground_force_pz	ground_torque_x	ground_torque_y	ground_torque_z	l_ground_torque_x	l_ground_torque_y	l_ground_torque_z
0.332	-0.0	-0.0	-0.0	-0.0	-0.0	-0.0	-16.560710906982422	8.281015396118164	-789.0826416015625	-0.0	-0.0	-0.0	-0.0	-0.0	-0.0	245425.5625	32647.59375	-7909.740234375
0.3325	-0.0	-0.0	-0.0	-0.0	-0.0	-0.0	-17.760873794555664	7.865939140319824	-787.2249145507812	-0.0	-0.0	-0.0	-0.0	-0.0	-0.0	244935.046875	33098.0	-7970.6357421875
0.333	-0.0	-0.0	-0.0	-0.0	-0.0	-0.0	-18.474937438964844	7.202182769775391	-785.36767578125	-0.0	-0.0	-0.0	-0.0	-0.0	-0.0	244139.5	33351.44921875	-8212.7939453125
0.3335	-0.0	-0.0	-0.0	-0.0	-0.0	-0.0	-18.88798713684082	6.57987117767334	-783.5210571289062	-0.0	-0.0	-0.0	-0.0	-0.0	-0.0	243685.171875	33706.2109375	-8282.0126953125
0.334	-0.0	-0.0	-0.0	-0.0	-0.0	-0.0	-18.696931838989254	6.49390172958374	-782.44873046875	-0.0	-0.0	-0.0	-0.0	-0.0	-0.0	243319.53125	33514.09375	-8106.8984375
0.3345	-0.0	-0.0	-0.0	-0.0	-0.0	-0.0	-18.27318572998047	6.402584552764893	-782.090087890625	-0.0	-0.0	-0.0	-0.0	-0.0	-0.0	243352.375	33554.54296875	-7911.01904296875
0.335	-0.0	-0.0	-0.0	-0.0	-0.0	-0.0	-17.063899993896484	6.974983215332031	-783.0962524414062	-0.0	-0.0	-0.0	-0.0	-0.0	-0.0	243409.625	33445.28125	-7551.0458984375
0.3355	-0.0	-0.0	-0.0	-0.0	-0.0	-0.0	-15.787878036499023	7.181305408477783	-783.8556518554688	-0.0	-0.0	-0.0	-0.0	-0.0	-0.0	243189.890625	33483.46484375	-7104.7529296875
0.336	-0.0	-0.0	-0.0	-0.0	-0.0	-0.0	-15.054664611816406	6.733203887939453	-782.7769165039062	-0.0	-0.0	-0.0	-0.0	-0.0	-0.0	242766.390625	33226.08984375	-6624.0771484375
0.3365	-0.0	-0.0	-0.0	-0.0	-0.0	-0.0	-14.4442138671875	6.477528095245361	-781.7599487304688	-0.0	-0.0	-0.0	-0.0	-0.0	-0.0	242456.546875	32916.37890625	-6410.853515625
0.337	-0.0	-0.0	-0.0	-0.0	-0.0	-0.0	-14.222000122070312	6.063159942626953	-782.22216796875	-0.0	-0.0	-0.0	-0.0	-0.0	-0.0	242216.703125	32823.50390625	-6421.416015625
0.3375	-0.0	-0.0	-0.0	-0.0	-0.0	-0.0	-14.176721572875977	6.1234893798828125	-782.300537109375	-0.0	-0.0	-0.0	-0.0	-0.0	-0.0	242483.84375	32754.263671875	-6247.435546875
0.338	-0.0	-0.0	-0.0	-0.0	-0.0	-0.0	-13.968761444091797	6.400149345397949	-783.5772094726562	-0.0	-0.0	-0.0	-0.0	-0.0	-0.0	242268.21875	32557.7890625	-6155.6484375
0.3385	-0.0	-0.0	-0.0	-0.0	-0.0	-0.0	-13.905463218688965	7.048758029937744	-784.26953125	-0.0	-0.0	-0.0	-0.0	-0.0	-0.0	242099.5625	32518.880859375	-6126.3076171875
0.339	-0.0	-0.0	-0.0	-0.0	-0.0	-0.0	-14.029903411865234	7.276394844055176	-785.4969482421875	-0.0	-0.0	-0.0	-0.0	-0.0	-0.0	241959.359375	32373.796875	-6045.92333984375
0.3395	-0.0	-0.0	-0.0	-0.0	-0.0	-0.0	-13.883237838745115	6.6321892738342285	-785.3150024414062	-0.0	-0.0	-0.0	-0.0	-0.0	-0.0	241813.25	32065.09765625	-5909.10400390625
0.34	-0.0	-0.0	-0.0	-0.0	-0.0	-0.0	-13.436038970947266	6.210041522979736	-786.0203857421875	-0.0	-0.0	-0.0	-0.0	-0.0	-0.0	241381.71875	32041.70703125	-5648.51513671875
0.3405	-0.0	-0.0	-0.0	-0.0	-0.0	-0.0	-13.240084648132324	5.355391502380371	-785.3269653320312	-0.0	-0.0	-0.0	-0.0	-0.0	-0.0	241465.03125	32024.2890625	-5533.421875
0.341	-0.0	-0.0	-0.0	-0.0	-0.0	-0.0	-13.19159698486328	4.594979286193848	-787.0035400390625	-0.0	-0.0	-0.0	-0.0	-0.0	-0.0	241301.203125	32099.9453125	-5286.3671875
0.3415	-0.0	-0.0	-0.0	-0.0	-0.0	-0.0	-13.094830513000488	3.948402404785156	-788.0750122070312	-0.0	-0.0	-0.0	-0.0	-0.0	-0.0	241261.3125	32138.486328125	-5163.77783203125
0.342	-0.0	-0.0	-0.0	-0.0	-0.0	-0.0	-13.008659362792969	3.6811931133270255	-786.3684692382812	-0.0	-0.0	-0.0	-0.0	-0.0	-0.0	240973.28125	32120.513671875	-5080.8671875
0.3425	-0.0	-0.0	-0.0	-0.0	-0.0	-0.0	-12.247088432312012	3.910313606262207	-788.9246826171875	-0.0	-0.0	-0.0	-0.0	-0.0	-0.0	240663.25	31957.5	-4818.7890625
0.343	-0.0	-0.0	-0.0	-0.0	-0.0	-0.0	-11.61115837097168	3.753717422485352	-788.519775390625	-0.0	-0.0	-0.0	-0.0	-0.0	-0.0	240504.609375	31953.59375	-4578.50830078125
0.3435	-0.0	-0.0	-0.0	-0.0	-0.0	-0.0	-11.299760818481444	3.4197442531585693	-789.9412841796875	-0.0	-0.0	-0.0	-0.0	-0.0	-0.0	240187.390625	31957.263671875	-4274.5390625
0.34400000000000003	-0.0	-0.0	-0.0	-0.0	-0.0	-0.0	-10.762980461120604	3.022761821746826	-787.650390625	-0.0	-0.0	-0.0	-0.0	-0.0	-0.0	239455.953125	31890.5	-4139.87744140625
0.34450000000000003	-0.0	-0.0	-0.0	-0.0	-0.0	-0.0	-10.480461120605469	2.433499813079834	-787.4815673828125	-0.0	-0.0	-0.0	-0.0	-0.0	-0.0	239225.375	32248.390625	-3959.7783203125
0.34500000000000003	-0.0	-0.0	-0.0	-0.0	-0.0	-0.0	-10.413753509521484	1.3442697525024414	-786.3282470703125	-0.0	-0.0	-0.0	-0.0	-0.0	-0.0	238282.359375	31983.912109375	-3897.9794921875
0.34550000000000003	-0.0	-0.0	-0.0	-0.0	-0.0	-0.0	-10.0662841796875	0.247742012143135	-785.8723754882812	-0.0	-0.0	-0.0	-0.0	-0.0	-0.0	237664.21875	32006.16015625	-3776.888427734375
0.34600000000000003	-0.0	-0.0	-0.0	-0.0	-0.0	-0.0	-9.974925994873049	-0.4511513710021972	-784.194580078125	-0.0	-0.0	-0.0	-0.0	-0.0	-0.0	236945.828125	32049.544921875	-3573.46728515625
0.34650000000000003	-0.0	-0.0	-0.0	-0.0	-0.0	-0.0	-10.036808967590332	-1.3052701950073242	-784.4473266601562	-0.0	-0.0	-0.0	-0.0	-0.0	-0.0	236514.71875	31992.759765625	-3567.940673828125
0.34700000000000003	-0.0	-0.0	-0.0	-0.0	-0.0	-0.0	-10.364812850952148	-1.898963451385498	-784.33056640625	-0.0	-0.0	-0.0	-0.0	-0.0	-0.0	236167.8125	32076.908203125	-3579.1015625
0.34750000000000003	-0.0	-0.0	-0.0	-0.0	-0.0	-0.0	-10.196904182434082	-2.0577049255371094	-784.2137451171875	-0.0	-0.0	-0.0	-0.0	-0.0	-0.0	235939.265625	32095.005859375	-3579.555908203125
0.34800000000000003	-0.0	-0.0	-0.0	-0.0	-0.0	-0.0	-10.517742156982422	-2.442692279815674	-784.5003051757812	-0.0	-0.0	-0.0	-0.0	-0.0	-0.0	235780.078125	32090.51953125	-3614.125244140625
0.34850000000000003	-0.0	-0.0	-0.0	-0.0	-0.0	-0.0	-10.444162368774414	-2.9539356231689453	-784.1834716796875	-0.0	-0.0	-0.0	-0.0	-0.0	-0.0	235605.890625	32265.3046875	-3639.461181640625
0.34900000000000003	-0.0	-0.0	-0.0	-0.0	-0.0	-0.0	-10.784034729003906	-3.325683116912842	-783.480712890625	-0.0	-0.0	-0.0	-0.0	-0.0	-0.0	235758.0	32389.072265625	-3780.40185546875
0.34950000000000003	-0.0	-0.0	-0.0	-0.0	-0.0	-0.0	-11.454350471496582	-4.016774654388428	-782.91552734375	-0.0	-0.0	-0.0	-0.0	-0.0	-0.0	235570.3125	32707.1953125	-3941.90234375
0.35000000000000003	-0.0	-0.0	-0.0	-0.0	-0.0	-0.0	-12.539352416992188	-3.532867431640625	-782.5242919921875	-0.0	-0.0	-0.0	-0.0	-0.0	-0.0	235838.9375	32908.8359375	-4241.36279296875
0.35050000000000003	-0.0	-0.0	-0.0	-0.0	-0.0	-0.0	-12.88624382019043	-3.3842520713806152	-781.8614501953125	-0.0	-0.0	-0.0	-0.0	-0.0	-0.0	236043.53125	33125.59765625	-4481.44775390625
0.35100000000000003	-0.0	-0.0	-0.0	-0.0	-0.0	-0.0	-13.404951095581056	-2.757037401199341	-783.334716796875	-0.0	-0.0	-0.0	-0.0	-0.0	-0.0	236496.875	33611.13671875	-4664.326171875
0.35150000000000003	-0.0	-0.0	-0.0	-0.0	-0.0	-0.0	-13.40160846710205	-2.630671739578247	-784.5065307617188	-0.0	-0.0	-0.0	-0.0	-0.0	-0.0	236956.40625	33686.28515625	-4727.826171875
0.352	-0.0	-0.0	-0.0	-0.0	-0.0	-0.0	-13.363520622253418	-2.497992038726806	-784.6183471679688	-0.0	-0.0	-0.0	-0.0	-0.0	-0.0	237537.453125	33989.77734375	-4722.42724609375
0.3525	-0.0	-0.0	-0.0	-0.0	-0.0	-0.0	-13.461413383483888	-2.5373873710632324	-784.6741333007812	-0.0	-0.0	-0.0	-0.0	-0.0	-0.0	237894.78125	34548.04296875	-4933.451171875
0.353	-0.0	-0.0	-0.0	-0.0	-0.0	-0.0	-13.932947158813477	-1.870943307876587	-785.8555297851562	-0.0	-0.0	-0.0	-0.0	-0.0	-0.0	238452.1875	34811.93359375	-4877.0771484375
0.3535	-0.0	-0.0	-0.0	-0.0	-0.0	-0.0	-14.053852081298828	-0.8772424459457397	-786.3951416015625	-0.0	-0.0	-0.0	-0.0	-0.0	-0.0	238876.671875	35076.9140625	-5007.0537109375
0.354	-0.0	-0.0	-0.0	-0.0	-0.0	-0.0	-13.236602783203123	-0.4091284275054931	-784.3604125976562	-0.0	-0.0	-0.0	-0.0	-0.0	-0.0	238680.046875	35356.4375	-4797.931640625
0.3545	-0.0	-0.0	-0.0	-0.0	-0.0	-0.0	-12.4393892288208	-0.1417370736598968	-783.9324951171875	-0.0	-0.0	-0.0	-0.0	-0.0	-0.0	238767.359375	35135.515625	-4423.37939453125
0.355	-0.0	-0.0	-0.0	-0.0	-0.0	-0.0	-11.142520904541016	-0.5412053465843201	-783.6138916015625	-0.0	-0.0	-0.0	-0.0	-0.0	-0.0	238943.671875	35064.5859375	-3968.2265625
0.3555	-0.0	-0.0	-0.0	-0.0	-0.0	-0.0	-10.202655792236328	-0.962394952774048	-783.9038696289062	-0.0	-0.0	-0.0	-0.0	-0.0	-0.0	238923.75	35335.75	-3542.760498046875
0.356	-0.0	-0.0	-0.0	-0.0	-0.0	-0.0	-9.399852752685549	-1.0965789556503296	-784.8202514648438	-0.0	-0.0	-0.0	-0.0	-0.0	-0.0	239347.9375	35036.1953125	-3398.66259765625
0.3565	-0.0	-0.0	-0.0	-0.0	-0.0	-0.0	-9.484189987182615	-0.7628254294395447	-784.561767578125	-0.0	-0.0	-0.0	-0.0	-0.0	-0.0	238981.859375	35338.84765625	-3146.984130859375
0.357	-0.0	-0.0	-0.0	-0.0	-0.0	-0.0	-9.430864334106444	-0.2951951324939728	-783.140625	-0.0	-0.0	-0.0	-0.0	-0.0	-0.0	239039.75	35361.10546875	-3135.795166015625
0.3575	-0.0	-0.0	-0.0	-0.0	-0.0	-0.0	-10.19862174987793	0.1903667151927948	-781.4677734375	-0.0	-0.0	-0.0	-0.0	-0.0	-0.0	238681.671875	35813.26953125	-3366.174072265625
0.358	-0.0	-0.0	-0.0	-0.0	-0.0	-0.0	-11.159296989440918	0.1948252022266388	-779.7274169921875	-0.0	-0.0	-0.0	-0.0	-0.0	-0.0	238151.15625	35960.875	-3443.677978515625
0.3585	-0.0	-0.0	-0.0	-0.0	-0.0	-0.0	-12.330842971801758	0.3368862569332123	-779.0222778320312	-0.0	-0.0	-0.0	-0.0	-0.0	-0.0	237728.734375	36373.68359375	-3735.70458984375
0.359	-0.0	-0.0	-0.0	-0.0	-0.0	-0.0	-13.146294593811035	0.3543548882007599	-779.1235961914062	-0.0	-0.0	-0.0	-0.0	-0.0	-0.0	237899.84375	36527.34375	-3957.25634765625
0.3595	-0.0	-0.0	-0.0	-0.0	-0.0	-0.0	-13.642983436584473	0.0269843637943267	-778.7615966796875	-0.0	-0.0	-0.0	-0.0	-0.0	-0.0	237920.171875	36627.0546875	-3875.912109375
0.36	-0.0	-0.0	-0.0	-0.0	-0.0	-0.0	-13.41336727142334	-0.1242402046918869	-778.4009399414062	-0.0	-0.0	-0.0	-0.0	-0.0	-0.0	238142.78125	36640.8671875	-3812.104736328125
0.3605	-0.0	-0.0	-0.0	-0.0	-0.0	-0.0	-13.076498031616213	0.1265459954738617	-779.8797607421875	-0.0	-0.0	-0.0	-0.0	-0.0	-0.0	238332.125	36855.97265625	-3702.52734375
0.361	-0.0	-0.0	-0.0	-0.0	-0.0	-0.0	-13.466076850891112	0.1677779555320739	-779.2021484375	-0.0	-0.0	-0.0	-0.0	-0.0	-0.0	239084.25	36683.75390625	-3634.53662109375
0.3615	-0.0	-0.0	-0.0	-0.0	-0.0	-0.0	-13.244813919067385	1.12100350856781	-781.1400146484375	-0.0	-0.0	-0.0	-0.0	-0.0	-0.0	239165.296875	36571.39453125	-3641.5751953125
0.362	-0.0	-0.0	-0.0	-0.0	-0.0	-0.0	-12.95155143737793	1.5545949935913086	-781.0530395507812	-0.0	-0.0	-0.0	-0.0	-0.0	-0.0	239530.875	36526.26953125	-3532.964111328125
0.3625	-0.0	-0.0	-0.0	-0.0	-0.0	-0.0	-12.149007797241213	2.44197940826416	-781.3489990234375	-0.0	-0.0	-0.0	-0.0	-0.0	-0.0	239940.78125	36169.37890625	-3324.468505859375
0.363	-0.0	-0.0	-0.0	-0.0	-0.0	-0.0	-10.84957790374756	3.214838981628418	-782.274169921875	-0.0	-0.0	-0.0	-0.0	-0.0	-0.0	239981.125	36020.48828125	-2996.9853515625
0.3635	-0.0	-0.0	-0.0	-0.0	-0.0	-0.0	-9.376352310180664	3.510742664337158	-780.73486328125	-0.0	-0.0	-0.0	-0.0	-0.0	-0.0	240026.46875	35732.171875	-2491.630859375
